<svg width="54" height="54" version="1.1" xmlns="http://www.w3.org/2000/svg"><path d="M22.68 1.08 L22.14 1.08 L24.3 4.86 L25.92 8.1 L27.54 5.4 Z" style="fill:rgb(184,184,184);stroke:rgb(184,184,184);" stroke-width="1.6"></path><path d="M10.8 8.64 L9.18 12.42 L7.56 15.66 L8.64 18.9 L9.72 17.28 L10.26 13.5 Z" style="fill:rgb(184,184,184);stroke:rgb(184,184,184);" stroke-width="1.6"></path><path d="M37.8 15.66 L41.04 12.42 L43.2 9.72 L44.28 9.18 L42.12 6.48 L40.365 9.045 L38.88 9.18 L26.46 10.26 L9.72 11.88 L10.8 12.96 L26.46 11.34 L40.23 10.125 Z" style="fill:rgb(184,184,184);stroke:rgb(184,184,184);" stroke-width="1.6"></path><path d="M14.04 18.9 L15.12 19.98 L25.38 18.36 L36.18 17.28 L34.02 15.66 L31.86 16.2 L25.38 17.28 Z" style="fill:rgb(184,184,184);stroke:rgb(184,184,184);" stroke-width="1.6"></path><path d="M17.82 24.84 L23.76 20.52 L25.92 18.9 L23.22 18.9 L20.52 21.6 L16.2 24.84 L8.64 29.16 L10.8 28.62 Z" style="fill:rgb(184,184,184);stroke:rgb(184,184,184);" stroke-width="1.6"></path><path d="M22.14 22.68 L21.6 22.68 L22.8825 25.0425 L24.3 28.2825 L25.4475 32.6025 L25.38 39.96 L23.76 47.52 L17.28 44.28 L24.3 50.76 L25.92 47.52 L27 42.12 L27 33.48 L25.38 27.54 Z" style="fill:rgb(184,184,184);stroke:rgb(184,184,184);" stroke-width="1.6"></path><path d="M23.1525 24.975 L16.2 31.32 L8.1 36.72 L11.88 35.1 L19.98 29.7 L23.625 26.5275 Z" style="fill:rgb(184,184,184);stroke:rgb(184,184,184);" stroke-width="1.6"></path><path d="M24.84 30.24 L18.9 36.18 L10.8 42.12 L3.78 45.9 L4.32 45.9 L10.26 43.2 L15.12 40.5 L19.44 37.26 L25.38 31.86 Z" style="fill:rgb(184,184,184);stroke:rgb(184,184,184);" stroke-width="1.6"></path><path d="M36.18 24.3 L37.8 23.76 L36.72 20.52 L30.78 26.46 L24.84 30.78 L28.08 29.7 Z" style="fill:rgb(184,184,184);stroke:rgb(184,184,184);" stroke-width="1.6"></path><path d="M29.16 29.7 L28.62 29.7 L36.18 39.96 L38.88 43.2 L47.52 42.12 L45.36 41.58 L41.58 41.04 L38.34 39.42 Z" style="fill:rgb(184,184,184);stroke:rgb(184,184,184);" stroke-width="1.6"></path></svg>